<svg xmlns="http://www.w3.org/2000/svg" viewBox="0 0 32 32" fill="none">
  <rect width="32" height="32" rx="8" fill="url(#g)"/>
  <path d="M8 22V10h4.5c2.2 0 3.8 1.4 3.8 3.5 0 1.5-.8 2.6-2 3.1L17 22h-3.2l-2.8-4.8H11.2V22H8zm3.2-7.2h1.2c1 0 1.6-.5 1.6-1.3s-.6-1.3-1.6-1.3h-1.2v2.6zM18.5 22l3.5-12h3.3l3.5 12h-3.3l-.6-2.2h-3l-.6 2.2h-3.3zm4.1-4.8l-.9-3.4-.9 3.4h1.8z" fill="#fff"/>
  <defs>
    <linearGradient id="g" x1="0" y1="0" x2="32" y2="32" gradientUnits="userSpaceOnUse">
      <stop stop-color="#2563eb"/>
      <stop offset="1" stop-color="#7c3aed"/>
    </linearGradient>
  </defs>
</svg>
