<svg xmlns="http://www.w3.org/2000/svg" viewBox="0 0 400 320" fill="none">
  <defs>
    <linearGradient id="panel" x1="0" y1="0" x2="100" y2="60" gradientUnits="userSpaceOnUse">
      <stop stop-color="#065f46"/><stop offset="1" stop-color="#10b981"/>
    </linearGradient>
    <linearGradient id="panel2" x1="0" y1="0" x2="80" y2="48" gradientUnits="userSpaceOnUse">
      <stop stop-color="#1e40af"/><stop offset="1" stop-color="#38bdf8"/>
    </linearGradient>
    <radialGradient id="sunGlow" cx="50%" cy="50%" r="50%">
      <stop offset="0%" stop-color="#fef08a"/><stop offset="100%" stop-color="#fbbf24" stop-opacity="0"/>
    </radialGradient>
    <filter id="glow"><feGaussianBlur stdDeviation="3" result="b"/><feMerge><feMergeNode in="b"/><feMergeNode in="SourceGraphic"/></feMerge></filter>
  </defs>
  <circle cx="320" cy="70" r="50" fill="url(#sunGlow)"/>
  <circle cx="320" cy="70" r="30" fill="#fbbf24" filter="url(#glow)"/>
  <g stroke="#fde047" stroke-width="2.5" opacity="0.8">
    <line x1="320" y1="28" x2="320" y2="14"/><line x1="320" y1="112" x2="320" y2="126"/>
    <line x1="278" y1="70" x2="264" y2="70"/><line x1="362" y1="70" x2="376" y2="70"/>
    <line x1="290" y1="38" x2="280" y2="28"/><line x1="350" y1="102" x2="360" y2="112"/>
    <line x1="350" y1="38" x2="360" y2="28"/><line x1="290" y1="102" x2="280" y2="112"/>
  </g>
  <rect x="88" y="180" width="10" height="95" rx="3" fill="#475569"/>
  <circle cx="93" cy="176" r="7" fill="#334155"/>
  <g transform="translate(93,176)" opacity="0.9">
    <ellipse cx="0" cy="-55" rx="7" ry="55" fill="#94a3b8" transform="rotate(0)"/>
    <ellipse cx="0" cy="-55" rx="7" ry="55" fill="#cbd5e1" transform="rotate(120)"/>
    <ellipse cx="0" cy="-55" rx="7" ry="55" fill="#94a3b8" transform="rotate(240)"/>
  </g>
  <g transform="translate(130,195)">
    <rect x="0" y="0" width="110" height="65" rx="5" fill="url(#panel)" stroke="#34d399" stroke-width="2"/>
    <line x1="36" y1="0" x2="36" y2="65" stroke="#6ee7b7" stroke-width="1" opacity="0.5"/>
    <line x1="73" y1="0" x2="73" y2="65" stroke="#6ee7b7" stroke-width="1" opacity="0.5"/>
    <line x1="0" y1="22" x2="110" y2="22" stroke="#6ee7b7" stroke-width="1" opacity="0.5"/>
    <line x1="0" y1="44" x2="110" y2="44" stroke="#6ee7b7" stroke-width="1" opacity="0.5"/>
    <polygon points="55,-10 65,0 45,0" fill="#64748b"/><rect x="50" y="0" width="10" height="14" fill="#64748b"/>
  </g>
  <g transform="translate(255,215)">
    <rect x="0" y="0" width="90" height="55" rx="4" fill="url(#panel2)" stroke="#60a5fa" stroke-width="2"/>
    <line x1="30" y1="0" x2="30" y2="55" stroke="#93c5fd" stroke-width="1" opacity="0.5"/>
    <line x1="60" y1="0" x2="60" y2="55" stroke="#93c5fd" stroke-width="1" opacity="0.5"/>
    <polygon points="45,-8 53,0 37,0" fill="#64748b"/><rect x="41" y="0" width="8" height="12" fill="#64748b"/>
  </g>
  <path d="M10 275 Q100 258 200 268 Q300 278 390 272 L390 320 L10 320 Z" fill="#10b981" opacity="0.15"/>
  <circle cx="60" cy="250" r="4" fill="#34d399" opacity="0.6"><animate attributeName="opacity" values="0.3;0.9;0.3" dur="2s" repeatCount="indefinite"/></circle>
  <circle cx="200" cy="260" r="3" fill="#38bdf8" opacity="0.5"><animate attributeName="opacity" values="0.2;0.8;0.2" dur="2.5s" repeatCount="indefinite"/></circle>
  <circle cx="350" cy="255" r="3.5" fill="#a78bfa" opacity="0.5"><animate attributeName="opacity" values="0.3;0.7;0.3" dur="3s" repeatCount="indefinite"/></circle>
</svg>
